<svg width="166" height="166" viewBox="0 0 166 166" fill="none" xmlns="http://www.w3.org/2000/svg">
<rect width="20.75" height="20.75" transform="translate(20.75 20.75)" fill="#FFD5E1"/>
<rect width="20.75" height="20.75" transform="translate(41.5 20.75)" fill="#FFD5E1"/>
<rect width="20.75" height="20.75" transform="translate(83 20.75)" fill="#FFD5E1"/>
<rect width="20.75" height="20.75" transform="translate(103.75 20.75)" fill="#FFD5E1"/>
<rect width="20.75" height="20.75" transform="translate(0 41.5)" fill="#FFD5E1"/>
<rect width="20.75" height="20.75" transform="translate(20.75 41.5)" fill="#FFD5E1"/>
<rect width="20.75" height="20.75" transform="translate(41.5 41.5)" fill="#FFD5E1"/>
<rect width="20.75" height="20.75" transform="translate(62.25 41.5)" fill="#FFD4E1"/>
<rect width="20.75" height="20.75" transform="translate(83 41.5)" fill="#FFD5E1"/>
<rect width="20.75" height="20.75" transform="translate(103.75 41.5)" fill="#FFD5E1"/>
<rect width="20.75" height="20.75" transform="translate(124.5 41.5)" fill="#FFD5E1"/>
<rect width="20.75" height="20.75" transform="translate(0 62.25)" fill="#FFD5E1"/>
<rect width="20.75" height="20.75" transform="translate(20.75 62.25)" fill="#FFD5E1"/>
<rect width="20.75" height="20.75" transform="translate(41.5 62.25)" fill="#FFD5E1"/>
<rect width="20.75" height="20.75" transform="translate(62.25 62.25)" fill="#FFD5E1"/>
<rect width="20.75" height="20.75" transform="translate(83 62.25)" fill="#FFD5E1"/>
<rect width="20.75" height="20.75" transform="translate(103.75 62.25)" fill="#FFD5E1"/>
<rect width="20.75" height="20.75" transform="translate(124.5 62.25)" fill="#FFD5E1"/>
<rect width="20.75" height="20.75" transform="translate(0 83)" fill="#FFD5E1"/>
<rect width="20.75" height="20.75" transform="translate(20.75 83)" fill="#FFD5E1"/>
<rect width="20.75" height="20.75" transform="translate(41.5 83)" fill="#FFD5E1"/>
<rect width="20.75" height="20.75" transform="translate(62.25 83)" fill="#FFD5E1"/>
<rect width="20.75" height="20.75" transform="translate(83 83)" fill="#FFD5E1"/>
<rect width="20.75" height="20.75" transform="translate(103.75 83)" fill="#FFD5E1"/>
<rect width="20.75" height="20.75" transform="translate(124.5 83)" fill="#FF89AC"/>
<rect width="20.75" height="20.75" transform="translate(20.75 103.75)" fill="#FFD5E1"/>
<rect width="20.75" height="20.75" transform="translate(41.5 103.75)" fill="#FFD5E1"/>
<rect width="20.75" height="20.75" transform="translate(62.25 103.75)" fill="#FFD4E1"/>
<rect width="20.75" height="20.75" transform="translate(83 103.75)" fill="#FFD5E1"/>
<rect width="20.75" height="20.75" transform="translate(103.75 103.75)" fill="#FF89AC"/>
<rect width="20.75" height="20.75" transform="translate(41.5 124.5)" fill="#FFD5E1"/>
<rect width="20.75" height="20.75" transform="translate(62.25 124.5)" fill="#FFD5E1"/>
<rect width="20.75" height="20.75" transform="translate(83 124.5)" fill="#FF89AC"/>
<rect width="20.75" height="20.75" transform="translate(62.25 145.25)" fill="#FF89AC"/>
</svg>
